<svg width="62" height="61" viewBox="0 0 62 61" fill="none" xmlns="http://www.w3.org/2000/svg">
<rect width="62" height="61" fill="#020612"/>
<path d="M22.146 43C21.6973 43.0005 21.2637 42.8336 20.9266 42.5308L9.63236 32.4254C9.43372 32.2476 9.27454 32.0284 9.16548 31.7825C9.05642 31.5367 9 31.2698 9 30.9998C9 30.7299 9.05642 30.463 9.16548 30.2172C9.27454 29.9713 9.43372 29.7521 9.63236 29.5743L20.9266 19.4689C21.2965 19.1379 21.7797 18.9708 22.2701 19.0042C22.7605 19.0376 23.2178 19.2689 23.5415 19.6471C23.8651 20.0253 24.0286 20.5195 23.9959 21.0209C23.9632 21.5224 23.7371 21.99 23.3672 22.3209L13.6656 30.9998L23.3663 39.6788C23.6502 39.9326 23.8517 40.2689 23.9437 40.6429C24.0357 41.0169 24.0139 41.4107 23.8813 41.7716C23.7487 42.1326 23.5115 42.4436 23.2014 42.6631C22.8913 42.8826 22.5231 43.0001 22.146 43Z" fill="white"/>
<path d="M39.8544 43C39.4772 43.0003 39.1089 42.8829 38.7988 42.6635C38.4886 42.4441 38.2513 42.1331 38.1185 41.7721C37.9858 41.411 37.964 41.0172 38.056 40.6431C38.1479 40.2691 38.3494 39.9326 38.6333 39.6788L48.3339 30.9998L38.6342 22.3209C38.2644 21.99 38.0382 21.5224 38.0056 21.0209C37.9729 20.5195 38.1363 20.0253 38.4599 19.6471C38.7836 19.2689 39.2408 19.0376 39.7312 19.0042C40.2215 18.9708 40.7047 19.1379 41.0746 19.4689L52.3677 29.5743C52.5663 29.7521 52.7255 29.9713 52.8345 30.2172C52.9436 30.463 53 30.7299 53 30.9998C53 31.2698 52.9436 31.5367 52.8345 31.7825C52.7255 32.0284 52.5663 32.2476 52.3677 32.4254L41.0746 42.5308C40.7373 42.834 40.3034 43.0008 39.8544 43Z" fill="white"/>
<path d="M26.8235 47C26.5394 46.9999 26.2593 46.9304 26.0055 46.7968C25.7517 46.6633 25.5311 46.4694 25.3614 46.2308C25.1917 45.9921 25.0775 45.7152 25.028 45.4222C24.9784 45.1291 24.9949 44.8279 25.076 44.5427L33.4137 15.4194C33.4765 15.1723 33.586 14.9408 33.7357 14.7389C33.8854 14.5369 34.0723 14.3684 34.2852 14.2435C34.4982 14.1186 34.7329 14.0397 34.9755 14.0116C35.2181 13.9835 35.4636 14.0066 35.6975 14.0797C35.9313 14.1528 36.1488 14.2744 36.3371 14.4372C36.5253 14.6 36.6804 14.8007 36.7933 15.0275C36.9062 15.2542 36.9744 15.5024 36.9941 15.7573C37.0137 16.0123 36.9844 16.2687 36.9077 16.5115L28.57 45.6348C28.4579 46.0291 28.2273 46.3748 27.9127 46.6208C27.598 46.8667 27.216 46.9997 26.8235 47Z" fill="white"/>
</svg>
