<svg width="93" height="56" viewBox="0 0 93 56" fill="none" xmlns="http://www.w3.org/2000/svg">
<path d="M27.7859 56C26.8374 56.0011 25.9211 55.6118 25.2085 54.9052L1.33658 31.326C0.91673 30.911 0.580277 30.3996 0.349764 29.8259C0.119251 29.2522 0 28.6296 0 27.9996C0 27.3697 0.119251 26.747 0.349764 26.1734C0.580277 25.5997 0.91673 25.0882 1.33658 24.6733L25.2085 1.09404C25.9902 0.321833 27.0117 -0.0681821 28.0482 0.00979452C29.0847 0.0877712 30.0513 0.627353 30.7354 1.50984C31.4194 2.39232 31.7649 3.54542 31.6959 4.71546C31.6268 5.88551 31.1488 6.97665 30.367 7.74886L9.86146 27.9996L30.3652 48.2504C30.9653 48.8427 31.391 49.6275 31.5855 50.5001C31.78 51.3727 31.734 52.2915 31.4537 53.1338C31.1733 53.9761 30.672 54.7018 30.0166 55.214C29.3612 55.7261 28.583 56.0003 27.7859 56Z" fill="black"/>
<path d="M65.2154 56C64.4182 56.0008 63.6398 55.7269 62.9842 55.2149C62.3286 54.7029 61.827 53.9772 61.5464 53.1348C61.2659 52.2924 61.2197 51.3734 61.4142 50.5006C61.6086 49.6278 62.0343 48.8428 62.6345 48.2504L83.1381 27.9996L62.6364 7.74886C61.8547 6.97665 61.3767 5.88551 61.3077 4.71546C61.2386 3.54542 61.584 2.39232 62.2681 1.50984C62.9521 0.627353 63.9186 0.0877712 64.955 0.00979452C65.9913 -0.0681821 67.0127 0.321833 67.7944 1.09404L91.664 24.6733C92.0838 25.0882 92.4202 25.5997 92.6507 26.1734C92.8812 26.747 93.0004 27.3697 93.0004 27.9996C93.0004 28.6296 92.8812 29.2522 92.6507 29.8259C92.4202 30.3996 92.0838 30.911 91.664 31.326L67.7944 54.9052C67.0816 55.6127 66.1645 56.0019 65.2154 56Z" fill="black"/>
<ellipse cx="46.5003" cy="28" rx="14.4935" ry="16" fill="black"/>
</svg>
