<svg width="93" height="56" viewBox="0 0 93 56" fill="none" xmlns="http://www.w3.org/2000/svg">
<path d="M46.5 4C57.9432 4 68.6637 10.2884 76.8223 17.0752C80.8443 20.421 84.1093 23.776 86.3672 26.2949C86.9282 26.9208 87.4247 27.4941 87.8545 28C87.4247 28.5059 86.9282 29.0792 86.3672 29.7051C84.1093 32.224 80.8443 35.579 76.8223 38.9248C68.6637 45.7116 57.9432 52 46.5 52C35.0568 52 24.3363 45.7116 16.1777 38.9248C12.1557 35.579 8.89073 32.224 6.63281 29.7051C6.07163 29.079 5.57443 28.506 5.14453 28C5.57443 27.494 6.07163 26.921 6.63281 26.2949C8.89073 23.776 12.1557 20.421 16.1777 17.0752C24.3363 10.2884 35.0568 4 46.5 4Z" stroke="black" stroke-width="8"/>
<circle cx="47" cy="28" r="17" fill="black"/>
<ellipse cx="53" cy="20.5" rx="4" ry="3.5" fill="white"/>
</svg>
